<?xml version="1.0" encoding="iso-8859-1"?>
<!-- Generator: Adobe Illustrator 19.0.0, SVG Export Plug-In . SVG Version: 6.00 Build 0)  -->
<svg version="1.1" id="Layer_1" xmlns="http://www.w3.org/2000/svg" xmlns:xlink="http://www.w3.org/1999/xlink" x="0px" y="0px"
	 viewBox="0 0 512 512" style="enable-background:new 0 0 512 512;" xml:space="preserve">
<g>
	<g>
		<path d="M435.2,102.4h-89.6V76.8c0-28.279-22.921-51.2-51.2-51.2h-76.8c-28.279,0-51.2,22.921-51.2,51.2v25.6H76.8
			C34.449,102.4,0,136.849,0,179.2v230.4c0,42.351,34.449,76.8,76.8,76.8h358.4c42.351,0,76.8-34.449,76.8-76.8V179.2
			C512,136.849,477.551,102.4,435.2,102.4z M192,76.8c0-14.114,11.486-25.6,25.6-25.6h76.8c14.114,0,25.6,11.486,25.6,25.6v25.6H192
			V76.8z M486.4,409.6c0,28.279-22.921,51.2-51.2,51.2H76.8c-28.279,0-51.2-22.921-51.2-51.2V179.2c0-28.279,22.921-51.2,51.2-51.2
			h358.4c28.279,0,51.2,22.921,51.2,51.2V409.6z"/>
	</g>
</g>
<g>
	<g>
		<path d="M345.6,243.2h-38.4v-38.4c0-14.14-11.46-25.6-25.6-25.6h-51.2c-14.14,0-25.6,11.46-25.6,25.6v38.4h-38.4
			c-14.14,0-25.6,11.46-25.6,25.6V320c0,14.14,11.46,25.6,25.6,25.6h38.4V384c0,14.14,11.46,25.6,25.6,25.6h51.2
			c14.14,0,25.6-11.46,25.6-25.6v-38.4h38.4c14.14,0,25.6-11.46,25.6-25.6v-51.2C371.2,254.66,359.74,243.2,345.6,243.2z M345.6,320
			h-64v64h-51.2v-64h-64v-51.2h64v-64h51.2v64h64V320z"/>
	</g>
</g>
<g>
</g>
<g>
</g>
<g>
</g>
<g>
</g>
<g>
</g>
<g>
</g>
<g>
</g>
<g>
</g>
<g>
</g>
<g>
</g>
<g>
</g>
<g>
</g>
<g>
</g>
<g>
</g>
<g>
</g>
</svg>
