<?xml version="1.0" encoding="iso-8859-1"?>
<!-- Generator: Adobe Illustrator 19.0.0, SVG Export Plug-In . SVG Version: 6.00 Build 0)  -->
<svg version="1.1" id="Layer_1" xmlns="http://www.w3.org/2000/svg" xmlns:xlink="http://www.w3.org/1999/xlink" x="0px" y="0px"
	 viewBox="0 0 511.998 511.998" style="enable-background:new 0 0 511.998 511.998;" xml:space="preserve">
<g>
	<g>
		<path d="M508.344,242.823c-3.439-5.726-86.161-140.424-252.348-140.424S7.087,237.098,3.648,242.823
			c-4.864,8.107-4.864,18.236,0,26.342c3.439,5.734,86.161,140.433,252.348,140.433S504.905,274.9,508.344,269.174
			C513.216,261.059,513.216,250.939,508.344,242.823z M255.996,383.999c-153.6,0-230.4-128-230.4-128s76.8-128,230.4-128
			s230.4,128,230.4,128S409.596,383.999,255.996,383.999z"/>
	</g>
</g>
<g>
	<g>
		<path d="M255.996,153.599c-56.465,0-102.4,45.935-102.4,102.4s45.935,102.4,102.4,102.4s102.4-45.935,102.4-102.4
			S312.461,153.599,255.996,153.599z M255.996,332.799c-42.419,0-76.8-34.381-76.8-76.8c0-42.419,34.381-76.8,76.8-76.8
			c42.419,0,76.8,34.381,76.8,76.8C332.796,298.418,298.415,332.799,255.996,332.799z"/>
	</g>
</g>
<g>
	<g>
		<path d="M255.996,204.799c-28.228,0-51.2,22.972-51.2,51.2s22.972,51.2,51.2,51.2s51.2-22.972,51.2-51.2
			S284.224,204.799,255.996,204.799z M255.996,281.599c-14.14,0-25.6-11.46-25.6-25.6c0-14.14,11.46-25.6,25.6-25.6
			c14.14,0,25.6,11.46,25.6,25.6C281.596,270.139,270.135,281.599,255.996,281.599z"/>
	</g>
</g>
<g>
</g>
<g>
</g>
<g>
</g>
<g>
</g>
<g>
</g>
<g>
</g>
<g>
</g>
<g>
</g>
<g>
</g>
<g>
</g>
<g>
</g>
<g>
</g>
<g>
</g>
<g>
</g>
<g>
</g>
</svg>
