<?xml version="1.0" encoding="utf-8"?>
<!-- Generator: Adobe Illustrator 19.2.1, SVG Export Plug-In . SVG Version: 6.00 Build 0)  -->
<svg version="1.1" id="Layer_1" xmlns="http://www.w3.org/2000/svg" xmlns:xlink="http://www.w3.org/1999/xlink" x="0px" y="0px"
	 viewBox="0 0 32 32" style="enable-background:new 0 0 32 32;" xml:space="preserve">
<style type="text/css">
	.st0{fill:#5EB671;}
	.st1{fill:#FFFFFF;}
</style>
<path class="st0" d="M29.8,16c0,3.6-1.4,6.9-3.6,9.3C23.6,28,20,29.8,16,29.8S8.4,28,5.9,25.3c-2.3-2.5-3.6-5.7-3.6-9.3
	C2.3,8.4,8.4,2.3,16,2.3S29.8,8.4,29.8,16z"/>
<circle class="st1" cx="16" cy="10.9" r="4.8"/>
<path class="st1" d="M23.9,22.9c-2,2.2-4.8,3.5-7.9,3.5s-5.9-1.3-7.9-3.5C8.7,19,12,16.1,16,16.1S23.3,19,23.9,22.9z"/>
</svg>
