<?xml version="1.0" encoding="utf-8"?>
<!-- Generator: Adobe Illustrator 19.2.1, SVG Export Plug-In . SVG Version: 6.00 Build 0)  -->
<svg version="1.1" id="Layer_1" xmlns="http://www.w3.org/2000/svg" xmlns:xlink="http://www.w3.org/1999/xlink" x="0px" y="0px"
	 viewBox="0 0 32 32" style="enable-background:new 0 0 32 32;" xml:space="preserve">
<style type="text/css">
	.st0{fill:#5EB671;}
	.st1{fill:#FFFFFF;}
</style>
<circle class="st0" cx="16" cy="16" r="16"/>
<g>
	<path class="st1" d="M20.9,12.9L20.9,12.9c0.4,0,0.7-0.3,0.7-0.7V8.3c0-0.4-0.3-0.7-0.7-0.7H9.8c-0.4,0-0.7,0.3-0.7,0.7v0.4v12.9
		v0.4c0,0.4,0.3,0.6,0.6,0.6l7.2,1.6c0.3,0,0.6-0.3,0.6-0.6v-1.3H21c0.4,0,0.7-0.3,0.7-0.7v-3.9c0-0.4-0.3-0.7-0.7-0.7h0
		c-0.4,0-0.7,0.3-0.7,0.7v2.8h-2.7V10.4c0-0.4-0.3-0.6-0.6-0.6l-1.8-0.4h5v2.8C20.2,12.6,20.5,12.9,20.9,12.9z"/>
	<path class="st1" d="M25.7,14.5l-1.9-1.9c-0.2-0.2-0.6-0.2-0.9,0c-0.2,0.2-0.2,0.6,0,0.9l0.8,0.8h-4.6c-0.3,0-0.6,0.3-0.6,0.6
		c0,0.3,0.3,0.6,0.6,0.6h4.6L23,16.3c-0.2,0.2-0.2,0.6,0,0.9s0.6,0.2,0.9,0l1.9-1.9C25.9,15.1,25.9,14.7,25.7,14.5z"/>
</g>
</svg>
