<?xml version="1.0" encoding="iso-8859-1"?>
<!-- Generator: Adobe Illustrator 19.0.0, SVG Export Plug-In . SVG Version: 6.00 Build 0)  -->
<svg version="1.1" id="Layer_1" xmlns="http://www.w3.org/2000/svg" xmlns:xlink="http://www.w3.org/1999/xlink" x="0px" y="0px"
	 viewBox="0 0 512 512" style="enable-background:new 0 0 512 512;" xml:space="preserve">
<g>
	<g>
		<path d="M493.935,304.691L409.6,256l84.335-48.691c5.879-3.396,10.172-8.986,11.93-15.548c1.758-6.562,0.836-13.551-2.56-19.43
			l-51.2-88.678c-3.396-5.879-8.986-10.172-15.548-11.93c-2.176-0.58-4.403-0.87-6.622-0.87c-4.454,0-8.875,1.161-12.8,3.43
			L332.8,122.974V25.6c0-14.14-11.46-25.6-25.6-25.6H204.8c-14.14,0-25.6,11.46-25.6,25.6v97.374L94.865,74.283
			c-3.925-2.27-8.346-3.43-12.8-3.43c-2.219,0-4.446,0.29-6.622,0.87c-6.562,1.766-12.151,6.059-15.548,11.938l-51.2,88.678
			c-3.396,5.88-4.318,12.868-2.56,19.43c1.758,6.554,6.05,12.151,11.93,15.548L102.4,256l-84.335,48.691
			c-5.879,3.396-10.172,8.986-11.93,15.548c-1.758,6.562-0.836,13.551,2.56,19.43l51.2,88.678c3.396,5.88,8.986,10.172,15.548,11.93
			c2.176,0.58,4.403,0.87,6.622,0.87c4.454,0,8.875-1.161,12.8-3.43l84.335-48.691V486.4c0,14.14,11.46,25.6,25.6,25.6h102.4
			c14.14,0,25.6-11.46,25.6-25.6v-97.374l84.335,48.691c3.925,2.27,8.346,3.43,12.8,3.43c2.219,0,4.446-0.29,6.622-0.87
			c6.562-1.758,12.151-6.05,15.548-11.93l51.2-88.678c3.396-5.879,4.318-12.868,2.56-19.43S499.814,308.087,493.935,304.691z
			 M429.935,415.539L307.2,344.678V486.4H204.8V344.678L82.065,415.539l-51.2-88.678L153.6,256L30.865,185.139l51.2-88.678
			L204.8,167.322V25.6h102.4v141.722l122.735-70.861l51.2,88.678L358.4,256l122.735,70.861L429.935,415.539z"/>
	</g>
</g>
<g>
</g>
<g>
</g>
<g>
</g>
<g>
</g>
<g>
</g>
<g>
</g>
<g>
</g>
<g>
</g>
<g>
</g>
<g>
</g>
<g>
</g>
<g>
</g>
<g>
</g>
<g>
</g>
<g>
</g>
</svg>
