<?xml version="1.0" encoding="utf-8"?>
<!-- Generator: Adobe Illustrator 22.1.0, SVG Export Plug-In . SVG Version: 6.00 Build 0)  -->
<svg version="1.1" id="Camada_1" xmlns="http://www.w3.org/2000/svg" xmlns:xlink="http://www.w3.org/1999/xlink" x="0px" y="0px"
	 viewBox="0 0 820 199" style="enable-background:new 0 0 820 199;" xml:space="preserve">
<style type="text/css">
	.st0{fill:none;}
	.st1{font-family:'CoolveticaRg-Regular';}
	.st2{font-size:65.4287px;}
	.st3{letter-spacing:3;}
	.st4{fill:#59B65C;}
	.st5{fill:#FFFFFF;}
	.st6{fill:#0B0A0C;stroke:#0B0A0C;stroke-width:22;stroke-miterlimit:10;}
</style>
<path class="st0" d="M391.3,116.8c1.3,1.1,2.4,2.4,3.1,4"/>
<text transform="matrix(1 0 0 1 444.7995 92.2776)" class="st1 st2 st3">HEALTH </text>
<text transform="matrix(1 0 0 1 444.7995 170.7776)" class="st4 st1 st2 st3">ASSISTANCE</text>
<path class="st5" d="M180.1,164.6c0.1-0.1,0.3-0.2,0.4-0.3c20.1-15.4,33.9-38.6,36.8-65.1"/>
<path class="st4" d="M414.5,42.6c-17.6-24.8-46.6-40.8-79.4-40.5c-52.1,0.4-94.8,42.9-95.5,95c-0.7,53.8,42.7,97.7,96.3,97.7
	c28.6,0,54.4-12.5,72-32.3c2.3-2.6,6.5-0.9,6.5,2.5v22.5c0.7,4.3,4.4,7.6,8.9,7.6s8.2-3.3,8.9-7.6V98.6
	C432.3,77.6,425.7,58.3,414.5,42.6z M336,177c-43.4,0-78.6-35.2-78.6-78.6s35.2-78.6,78.6-78.6s78.6,35.2,78.6,78.6
	C414.5,141.8,379.4,177,336,177z"/>
<circle class="st4" cx="336" cy="98.5" r="60.8"/>
<path class="st6" d="M186.6,14.4c-1.9-1.5-4.2-2.2-6.4-2.2c-3.5,0-6.9,1.7-8.9,5c-2.8,4.5-1.7,10.4,2.5,13.7
	C189.6,43,201,60.5,205.5,80.6c1,4.4-2.4,8.5-6.9,8.5H43.9c-4.5,0-7.9-4.1-6.9-8.5C41.3,61,52.3,43.9,67.5,31.8
	c4.2-3.3,5.3-9.2,2.4-13.7c-2-3.2-5.4-4.9-8.8-4.9c-2.3,0-4.6,0.7-6.5,2.3C29.9,35.1,14.1,65.4,14.1,99.4
	c0,34.5,16.3,65.2,41.7,84.8c4.9,3.8,12.1,2.5,15.3-2.8c1-1.7,1.5-3.5,1.5-5.4c0-3.2-1.5-6.3-4.1-8.4c-15.4-12-26.7-29-31.3-48.7
	c-1-4.4,2.4-8.5,6.9-8.5h154.4c4.6,0,7.9,4.3,6.8,8.7c-4.5,19.4-15.6,36.3-30.8,48.2c-2.7,2.1-4.1,5.2-4.1,8.3
	c0,1.9,0.5,3.8,1.6,5.5c3.3,5.3,10.4,6.5,15.3,2.7c25.1-19.6,41.2-50.1,41.2-84.4C228.4,64.7,212,33.9,186.6,14.4z"/>
</svg>
