<?xml version="1.0" encoding="utf-8"?>
<!-- Generator: Adobe Illustrator 22.1.0, SVG Export Plug-In . SVG Version: 6.00 Build 0)  -->
<svg version="1.1" id="Layer_1" xmlns="http://www.w3.org/2000/svg" xmlns:xlink="http://www.w3.org/1999/xlink" x="0px" y="0px"
	 viewBox="0 0 450.3 318.4" style="enable-background:new 0 0 450.3 318.4;" xml:space="preserve">
<style type="text/css">
	.st0{fill:#FFFFFF;}
	.st1{fill:#59B65C;}
	.st2{fill:#0B0A0C;}
	.st3{fill:none;stroke:#0B0A0C;stroke-width:22;stroke-miterlimit:10;}
</style>
<g>
	
		<image style="overflow:visible;opacity:0.25;" width="76" height="103" xlink:href="57C9C776.png"  transform="matrix(1 0 0 1 167 31.4)">
	</image>
	<g>
		<path class="st0" d="M221.1,111.1c-2.9-25.6-15.9-48.2-35-63.6l0,0c-1.3-1.1-2.6-2.1-4-3.1"/>
	</g>
</g>
<g>
	
		<image style="overflow:visible;opacity:0.25;" width="75" height="103" xlink:href="57C9C775.png"  transform="matrix(1 0 0 1 16 119.4)">
	</image>
	<g>
		<path class="st0" d="M31,132.7c2.9,25.8,16.1,48.6,35.4,64c1.1,0.9,2.3,1.8,3.5,2.6l0,0"/>
	</g>
</g>
<g>
	
		<image style="overflow:visible;opacity:0.25;" width="75" height="102" xlink:href="57C9C77C.png"  transform="matrix(1 0 0 1 168 119.4)">
	</image>
	<g>
		<path class="st0" d="M183.9,198.1c0.1-0.1,0.3-0.2,0.4-0.3c20.1-15.4,33.8-38.6,36.8-65.1"/>
	</g>
</g>
<g>
</g>
<g>
</g>
<g>
</g>
<g>
</g>
<g>
</g>
<g>
</g>
<g>
</g>
<g>
</g>
<g>
	
		<image style="overflow:visible;opacity:0.25;" width="230" height="230" xlink:href="57C9C77D.png"  transform="matrix(1 0 0 1 228 22.4)">
	</image>
	<g>
		<path class="st1" d="M418.3,76.1c-17.6-24.8-46.6-40.8-79.4-40.5c-52.1,0.4-94.8,42.9-95.5,95c-0.7,53.8,42.7,97.7,96.3,97.7
			c28.6,0,54.4-12.5,72-32.3c2.3-2.6,6.5-0.9,6.5,2.5V221c0.7,4.3,4.4,7.6,8.9,7.6s8.2-3.3,8.9-7.6v-88.9
			C436.1,111.1,429.5,91.9,418.3,76.1z M339.7,210.5c-43.4,0-78.6-35.2-78.6-78.6s35.2-78.6,78.6-78.6s78.6,35.2,78.6,78.6
			C418.3,175.3,383.1,210.5,339.7,210.5z"/>
	</g>
</g>
<g>
	
		<image style="overflow:visible;opacity:0.25;" width="463" height="69" xlink:href="57C9C77A.png"  transform="matrix(1 0 0 1 -8 239.4)">
	</image>
	<g>
		<g>
			<path class="st2" d="M25.3,283.6v-13.1H13.9v13.1H7.8v-29.2h6.1v11h11.4v-11h6.2v29.2L25.3,283.6L25.3,283.6z"/>
			<path class="st2" d="M36.4,283.6v-29.2h21.5v5.1H42.3v6.2h14.3v5.1H42.3v7.5h16.2v5.2L36.4,283.6L36.4,283.6z"/>
			<path class="st2" d="M82.8,283.6l-1.8-6H70.2l-2.1,6h-6.5L72,254.4h7.1l10.3,29.2H82.8z M75.6,260.9L75.6,260.9l-3.8,11.7h7.4
				L75.6,260.9z"/>
			<path class="st2" d="M93.6,283.6v-29.2h6.1v23.9h14.5v5.3H93.6z"/>
			<path class="st2" d="M118.9,283.6v-24.1h-8.8v-5.1h23.8v5.1H125v24.1H118.9z"/>
			<path class="st2" d="M155.6,283.6v-13.1h-11.4v13.1H138v-29.2h6.1v11h11.4v-11h6.2v29.2L155.6,283.6L155.6,283.6z"/>
			<path class="st1" d="M200.8,283.6l-1.8-6h-10.8l-2.1,6h-6.5l10.4-29.2h7.1l10.3,29.2H200.8z M193.5,260.9L193.5,260.9l-3.8,11.7
				h7.4L193.5,260.9z"/>
			<path class="st1" d="M226.7,263c-0.1-1.5-0.7-2.6-1.6-3.3s-2.4-1.1-4.2-1.1c-3.5,0-5.2,1.2-5.2,3.6c0,0.9,0.4,1.6,1.1,2.1
				c0.7,0.6,1.9,1,3.5,1.4c1.9,0.4,3.5,0.9,4.9,1.2c1.4,0.4,2.6,0.8,3.8,1.3c0.6,0.3,1.3,0.6,1.8,1c0.6,0.4,1.1,0.9,1.5,1.5
				s0.7,1.3,0.9,2.1c0.2,0.8,0.4,1.8,0.4,3c0,1.4-0.3,2.7-0.9,3.7c-0.6,1.1-1.4,2-2.4,2.8s-2.2,1.3-3.5,1.7
				c-1.3,0.4-2.8,0.6-4.3,0.6c-8.4,0-12.7-3.3-13-9.8h5.9c0,1.5,0.6,2.7,1.8,3.5s2.7,1.3,4.5,1.3c1.9,0,3.4-0.3,4.4-1
				s1.5-1.6,1.5-2.9c0-0.5-0.1-0.9-0.2-1.3c-0.1-0.4-0.3-0.8-0.7-1.1c-0.3-0.3-0.8-0.6-1.4-0.9c-0.6-0.2-1.4-0.5-2.3-0.7
				c-2.3-0.5-4.2-0.9-5.8-1.4s-3-1.1-4-1.8c-1.1-0.7-1.8-1.6-2.3-2.6s-0.7-2.3-0.7-3.9c0-1.2,0.2-2.3,0.7-3.4c0.4-1.1,1.1-2,2-2.7
				c0.9-0.8,2-1.4,3.4-1.8c1.3-0.5,2.9-0.7,4.7-0.7s3.3,0.2,4.8,0.7c1.4,0.5,2.6,1.1,3.6,1.9s1.8,1.8,2.4,3c0.6,1.2,0.9,2.5,0.9,3.9
				L226.7,263L226.7,263z"/>
			<path class="st1" d="M254.3,263c-0.1-1.5-0.7-2.6-1.6-3.3s-2.4-1.1-4.2-1.1c-3.5,0-5.2,1.2-5.2,3.6c0,0.9,0.4,1.6,1.1,2.1
				c0.7,0.6,1.9,1,3.5,1.4c1.9,0.4,3.5,0.9,4.9,1.2s2.6,0.8,3.8,1.3c0.6,0.3,1.3,0.6,1.8,1c0.6,0.4,1.1,0.9,1.5,1.5s0.7,1.3,0.9,2.1
				s0.4,1.8,0.4,3c0,1.4-0.3,2.7-0.9,3.7s-1.4,2-2.4,2.8c-1,0.7-2.2,1.3-3.5,1.7c-1.3,0.4-2.8,0.6-4.3,0.6c-8.4,0-12.7-3.3-13-9.8
				h5.9c0,1.5,0.6,2.7,1.8,3.5c1.2,0.9,2.7,1.3,4.5,1.3c1.9,0,3.4-0.3,4.4-1s1.5-1.6,1.5-2.9c0-0.5-0.1-0.9-0.2-1.3
				c-0.1-0.4-0.3-0.8-0.7-1.1c-0.3-0.3-0.8-0.6-1.4-0.9c-0.6-0.2-1.4-0.5-2.3-0.7c-2.3-0.5-4.2-0.9-5.8-1.4s-3-1.1-4-1.8
				c-1.1-0.7-1.8-1.6-2.3-2.6s-0.8-2.3-0.8-3.9c0-1.2,0.2-2.3,0.7-3.4c0.4-1.1,1.1-2,2-2.7c0.9-0.8,2-1.4,3.4-1.8
				c1.3-0.5,2.9-0.7,4.7-0.7s3.3,0.2,4.8,0.7c1.4,0.5,2.6,1.1,3.6,1.9c1,0.8,1.8,1.8,2.4,3s0.9,2.5,0.9,3.9L254.3,263L254.3,263z"/>
			<path class="st1" d="M265.3,283.6v-29.2h6.1v29.2H265.3z"/>
			<path class="st1" d="M292.9,263c-0.1-1.5-0.7-2.6-1.6-3.3c-0.9-0.7-2.4-1.1-4.2-1.1c-3.5,0-5.2,1.2-5.2,3.6
				c0,0.9,0.4,1.6,1.1,2.1c0.7,0.6,1.9,1,3.5,1.4c1.9,0.4,3.5,0.9,4.9,1.2c1.4,0.4,2.6,0.8,3.8,1.3c0.6,0.3,1.3,0.6,1.8,1
				s1.1,0.9,1.5,1.5s0.7,1.3,0.9,2.1c0.2,0.8,0.4,1.8,0.4,3c0,1.4-0.3,2.7-0.9,3.7c-0.6,1.1-1.4,2-2.4,2.8s-2.2,1.3-3.5,1.7
				c-1.3,0.4-2.8,0.6-4.3,0.6c-8.4,0-12.7-3.3-13-9.8h5.9c0,1.5,0.6,2.7,1.8,3.5s2.7,1.3,4.5,1.3c1.9,0,3.4-0.3,4.4-1
				s1.5-1.6,1.5-2.9c0-0.5-0.1-0.9-0.2-1.3s-0.3-0.8-0.7-1.1c-0.3-0.3-0.8-0.6-1.4-0.9s-1.4-0.5-2.3-0.7c-2.3-0.5-4.2-0.9-5.8-1.4
				c-1.6-0.5-3-1.1-4-1.8c-1.1-0.7-1.8-1.6-2.3-2.6s-0.8-2.3-0.8-3.9c0-1.2,0.2-2.3,0.7-3.4c0.4-1.1,1.1-2,2-2.7
				c0.9-0.8,2-1.4,3.4-1.8c1.3-0.5,2.9-0.7,4.7-0.7c1.8,0,3.3,0.2,4.8,0.7c1.4,0.5,2.6,1.1,3.6,1.9s1.8,1.8,2.4,3s0.9,2.5,0.9,3.9
				L292.9,263L292.9,263z"/>
			<path class="st1" d="M310.5,283.6v-24.1h-8.8v-5.1h23.8v5.1h-8.8v24.1H310.5z"/>
			<path class="st1" d="M342.2,283.6l-1.8-6h-10.8l-2.1,6H321l10.4-29.2h7.1l10.3,29.2H342.2z M334.9,260.9L334.9,260.9l-3.8,11.7
				h7.4L334.9,260.9z"/>
			<path class="st1" d="M371.1,283.6L358.6,264v19.6H353v-29.2h6.5l11.6,18.8v-18.8h5.7v29.2H371.1z"/>
			<path class="st1" d="M407.5,273.5c-0.3,1.7-0.8,3.2-1.5,4.5s-1.6,2.5-2.7,3.5s-2.3,1.7-3.7,2.2c-1.4,0.5-3,0.8-4.7,0.8
				c-1.9,0-3.7-0.3-5.3-1c-1.7-0.6-3.1-1.6-4.3-2.9c-1.2-1.3-2.2-2.9-2.8-4.8c-0.7-1.9-1-4.1-1-6.6s0.3-4.7,0.9-6.7s1.5-3.7,2.7-5
				c1.2-1.4,2.6-2.4,4.3-3.2c1.7-0.7,3.6-1.1,5.7-1.1c1.8,0,3.5,0.3,5,0.8s2.8,1.3,3.8,2.3c1.1,1,1.9,2.1,2.6,3.4
				c0.6,1.3,1,2.7,1.2,4.1h-6.1c-0.4-1.7-1.2-3-2.4-3.9c-1.2-0.9-2.5-1.4-4-1.4c-2.6,0-4.4,0.9-5.6,2.8c-1.2,1.8-1.8,4.3-1.8,7.5
				c0,3.3,0.6,5.8,1.8,7.6c1.2,1.8,3,2.7,5.3,2.7c1.8,0,3.3-0.5,4.4-1.5s1.8-2.4,2.2-4.2h6V273.5z"/>
			<path class="st1" d="M411.5,283.6v-29.2H433v5.1h-15.5v6.2h14.3v5.1h-14.3v7.5h16.2v5.2L411.5,283.6L411.5,283.6z"/>
		</g>
	</g>
</g>
<g>
	
		<image style="overflow:visible;opacity:0.25;" width="159" height="159" xlink:href="57C9C77B.png"  transform="matrix(1 0 0 1 263 57.4)">
	</image>
	<g>
		<circle class="st1" cx="339.7" cy="132" r="60.8"/>
	</g>
</g>
<g>
	
		<image style="overflow:visible;opacity:0.25;" width="274" height="233" xlink:href="57C9C774.png"  transform="matrix(1 0 0 1 -9 21.4)">
	</image>
	<g>
		<path class="st2" d="M190.4,47.9c-1.9-1.5-4.2-2.2-6.4-2.2c-3.5,0-6.9,1.7-8.9,5c-2.8,4.5-1.7,10.4,2.5,13.7
			c15.8,12.1,27.2,29.6,31.7,49.7c1,4.4-2.4,8.5-6.9,8.5H47.6c-4.5,0-7.9-4.1-6.9-8.5C45,94.5,56,77.4,71.2,65.3
			c4.2-3.3,5.3-9.2,2.4-13.7c-2-3.2-5.4-4.9-8.8-4.9c-2.3,0-4.6,0.7-6.5,2.3c-24.7,19.6-40.5,49.9-40.5,83.9
			c0,34.5,16.3,65.2,41.7,84.8c4.9,3.8,12.1,2.5,15.3-2.8c1-1.7,1.5-3.5,1.5-5.4c0-3.2-1.5-6.3-4.1-8.4c-15.4-12-26.7-29-31.3-48.7
			c-1-4.4,2.4-8.5,6.9-8.5h154.4c4.6,0,7.9,4.3,6.8,8.7c-4.5,19.4-15.6,36.3-30.8,48.2c-2.7,2.1-4.1,5.2-4.1,8.3
			c0,1.9,0.5,3.8,1.6,5.5c3.3,5.3,10.4,6.5,15.3,2.7c25.1-19.6,41.2-50.1,41.2-84.4C232.1,98.2,215.8,67.5,190.4,47.9z"/>
		<path class="st3" d="M190.4,47.9c-1.9-1.5-4.2-2.2-6.4-2.2c-3.5,0-6.9,1.7-8.9,5c-2.8,4.5-1.7,10.4,2.5,13.7
			c15.8,12.1,27.2,29.6,31.7,49.7c1,4.4-2.4,8.5-6.9,8.5H47.6c-4.5,0-7.9-4.1-6.9-8.5C45,94.5,56,77.4,71.2,65.3
			c4.2-3.3,5.3-9.2,2.4-13.7c-2-3.2-5.4-4.9-8.8-4.9c-2.3,0-4.6,0.7-6.5,2.3c-24.7,19.6-40.5,49.9-40.5,83.9
			c0,34.5,16.3,65.2,41.7,84.8c4.9,3.8,12.1,2.5,15.3-2.8c1-1.7,1.5-3.5,1.5-5.4c0-3.2-1.5-6.3-4.1-8.4c-15.4-12-26.7-29-31.3-48.7
			c-1-4.4,2.4-8.5,6.9-8.5h154.4c4.6,0,7.9,4.3,6.8,8.7c-4.5,19.4-15.6,36.3-30.8,48.2c-2.7,2.1-4.1,5.2-4.1,8.3
			c0,1.9,0.5,3.8,1.6,5.5c3.3,5.3,10.4,6.5,15.3,2.7c25.1-19.6,41.2-50.1,41.2-84.4C232.1,98.2,215.8,67.5,190.4,47.9z"/>
	</g>
</g>
</svg>
